# xmcd CD database file
#
# Track frame offsets:
#	150
#	27674
#	49586
#	72647
#	100542
#	148580
#	179107
#	198657
#	227743
#	245609
#
# Disc length: 3573 seconds
#
# Revision: 0
# Processed by: cddbd v1.5.2PL0 Copyright (c) Steve Scherf et al.
# Submitted via: CDex 1.51
#
DISCID=970df30a
DTITLE=Klaus Doldinger's Passport - To Morocco
DYEAR=2006
DGENRE=Jazz
TTITLE0=Medina
TTITLE1=Merhba
TTITLE2=Riyad El Cadi
TTITLE3=Zidane
TTITLE4=Djemaa El-Fna
TTITLE5=Lied an den Morgen
TTITLE6=Pas de Quoi
TTITLE7=Maalech
TTITLE8=Barma Soussandi
TTITLE9=Sahara Sketches
EXTD=YEAR: 2006
EXTT0=
EXTT1=
EXTT2=
EXTT3=
EXTT4=
EXTT5=
EXTT6=
EXTT7=
EXTT8=
EXTT9=
PLAYORDER=
